<svg width="159" height="156" viewBox="0 0 159 156" fill="none" xmlns="http://www.w3.org/2000/svg">
<path d="M152.039 127.354C148.07 118.611 142.312 110.67 135.083 103.972C127.877 97.255 119.34 91.8995 109.944 88.2013C109.86 88.1622 109.776 88.1426 109.692 88.1035C122.798 79.2985 131.318 64.9561 131.318 48.7744C131.318 21.9681 107.967 0.249023 79.1465 0.249023C50.3262 0.249023 26.9754 21.9681 26.9754 48.7744C26.9754 64.9561 35.4953 79.2985 48.6011 88.1231C48.517 88.1622 48.4329 88.1818 48.3487 88.2209C38.9243 91.919 30.4675 97.2216 23.2098 103.992C15.9881 110.695 10.2302 118.635 6.25421 127.374C2.34816 135.929 0.241535 145.102 0.0483776 154.395C0.0427628 154.604 0.0821441 154.812 0.164202 155.007C0.24626 155.201 0.369334 155.378 0.526172 155.528C0.68301 155.677 0.870439 155.796 1.07741 155.877C1.28439 155.958 1.50672 156 1.73132 156H14.3534C15.279 156 16.0153 155.315 16.0363 154.474C16.457 139.368 22.9784 125.222 34.5065 114.499C46.4344 103.405 62.275 97.2999 79.1465 97.2999C96.0179 97.2999 111.859 103.405 123.786 114.499C135.315 125.222 141.836 139.368 142.257 154.474C142.278 155.335 143.014 156 143.94 156H156.562C156.786 156 157.009 155.958 157.216 155.877C157.423 155.796 157.61 155.677 157.767 155.528C157.924 155.378 158.047 155.201 158.129 155.007C158.211 154.812 158.25 154.604 158.245 154.395C158.034 145.043 155.952 135.944 152.039 127.354ZM79.1465 82.4292C69.4906 82.4292 60.4027 78.9267 53.5658 72.5675C46.7289 66.2084 42.9633 57.7556 42.9633 48.7744C42.9633 39.7933 46.7289 31.3405 53.5658 24.9813C60.4027 18.6222 69.4906 15.1197 79.1465 15.1197C88.8023 15.1197 97.8902 18.6222 104.727 24.9813C111.564 31.3405 115.33 39.7933 115.33 48.7744C115.33 57.7556 111.564 66.2084 104.727 72.5675C97.8902 78.9267 88.8023 82.4292 79.1465 82.4292Z" fill="#F1F1F1"/>
</svg>
