<svg width="20" height="20" viewBox="0 0 20 20" fill="currentColor" xmlns="http://www.w3.org/2000/svg">
    <path d="M18.7378 4.98804L15.0115 1.26179C14.8397 1.08992 14.6288 0.963877 14.3997 0.895127V0.833252H1.56634C1.16072 0.833252 0.833008 1.16096 0.833008 1.56659V18.4333C0.833008 18.8389 1.16072 19.1666 1.56634 19.1666H18.433C18.8386 19.1666 19.1663 18.8389 19.1663 18.4333V6.02388C19.1663 5.63429 19.0128 5.26304 18.7378 4.98804ZM7.06634 2.48325H12.933V4.86659H7.06634V2.48325ZM17.5163 17.5166H2.48301V2.48325H5.59967V5.59992C5.59967 6.00554 5.92738 6.33325 6.33301 6.33325H13.6663C14.072 6.33325 14.3997 6.00554 14.3997 5.59992V2.98284L17.5163 6.0995V17.5166ZM9.99967 8.39575C8.1778 8.39575 6.69967 9.87388 6.69967 11.6958C6.69967 13.5176 8.1778 14.9958 9.99967 14.9958C11.8215 14.9958 13.2997 13.5176 13.2997 11.6958C13.2997 9.87388 11.8215 8.39575 9.99967 8.39575ZM9.99967 13.5291C8.98676 13.5291 8.16634 12.7087 8.16634 11.6958C8.16634 10.6828 8.98676 9.86242 9.99967 9.86242C11.0126 9.86242 11.833 10.6828 11.833 11.6958C11.833 12.7087 11.0126 13.5291 9.99967 13.5291Z" fill="#4D4D4D"/>
</svg>
